<?xml version="1.0" standalone="no"?>
<!DOCTYPE svg PUBLIC "-//W3C//DTD SVG 20010904//EN"
 "http://www.w3.org/TR/2001/REC-SVG-20010904/DTD/svg10.dtd">
<svg version="1.0" xmlns="http://www.w3.org/2000/svg"
 width="330.000000pt" height="330.000000pt" viewBox="0 0 330.000000 330.000000"
 preserveAspectRatio="xMidYMid meet">

<g transform="translate(0.000000,330.000000) scale(0.100000,-0.100000)"
fill="#000000" stroke="none">
<path d="M1415 2351 l-220 -129 -3 -264 -2 -265 230 -132 230 -133 230 132
230 132 -2 265 -3 265 -220 129 c-121 70 -227 128 -235 128 -8 0 -114 -58
-235 -128z m450 -28 l205 -118 -3 -248 -2 -248 -208 -120 -207 -120 -210 121
-210 122 0 246 0 247 203 117 c111 64 208 117 215 117 7 1 105 -52 217 -116z"/>
<path d="M1623 2135 c-3 -9 -18 -22 -34 -31 -45 -23 -59 -61 -59 -164 0 -73
-3 -90 -15 -90 -8 0 -15 -7 -15 -15 0 -11 13 -15 54 -15 48 0 55 -3 58 -21 4
-30 33 -47 56 -33 9 6 18 21 20 33 3 18 10 21 58 21 41 0 54 4 54 15 0 8 -7
15 -15 15 -12 0 -15 16 -15 86 0 97 -16 143 -56 165 -14 7 -30 21 -35 31 -12
22 -47 24 -56 3z m84 -57 c28 -23 43 -76 43 -153 l0 -75 -101 0 -101 0 4 96
c4 95 5 97 37 126 28 25 40 29 68 25 19 -4 42 -12 50 -19z m-39 -276 c2 -7 -6
-12 -17 -12 -21 0 -27 11 -14 24 9 9 26 2 31 -12z"/>
<path d="M1805 1207 c-3 -7 4 -30 15 -52 28 -55 27 -139 -3 -196 -27 -51 -67
-67 -67 -27 0 25 30 80 63 116 18 20 19 24 7 32 -21 13 -65 -32 -86 -87 -21
-55 -8 -93 31 -93 53 0 105 89 105 180 0 81 -48 174 -65 127z"/>
<path d="M777 1176 c-55 -15 -62 -20 -53 -41 5 -14 8 -14 36 0 40 21 39 13
-14 -117 -38 -91 -42 -109 -30 -119 17 -14 15 -17 38 52 26 79 32 88 49 69 7
-8 21 -40 30 -72 18 -57 33 -73 58 -58 11 7 11 12 -3 27 -8 10 -25 37 -37 61
l-22 42 28 11 c35 13 73 48 73 66 0 8 -9 3 -23 -12 -15 -18 -36 -28 -66 -32
-25 -4 -42 -2 -40 3 42 101 43 104 75 104 16 0 35 -5 42 -12 9 -9 12 -9 12 1
0 13 -60 41 -87 40 -10 0 -39 -6 -66 -13z"/>
<path d="M2269 1152 c-31 -39 -129 -224 -129 -247 0 -7 7 -15 15 -19 11 -4 15
1 15 17 0 41 111 249 125 235 2 -2 -3 -32 -10 -68 -8 -36 -14 -90 -15 -121 0
-47 3 -57 19 -62 15 -4 20 2 25 33 7 43 78 191 101 210 24 20 27 7 10 -61 -8
-35 -15 -89 -15 -120 0 -48 3 -57 20 -62 18 -5 20 0 20 56 0 34 7 91 16 127
22 94 22 101 -2 110 -18 7 -27 1 -55 -38 -19 -26 -48 -74 -66 -107 -38 -70
-42 -53 -13 53 22 79 21 87 -10 95 -15 4 -28 -5 -51 -31z"/>
<path d="M1480 1125 c0 -42 4 -43 26 -9 15 22 15 27 3 35 -24 15 -29 10 -29
-26z"/>
<path d="M1019 1076 c-60 -30 -93 -142 -49 -166 26 -14 52 -6 76 22 18 20 17
20 -13 -1 -17 -13 -36 -20 -42 -17 -27 17 7 126 44 140 25 9 17 -25 -12 -57
-30 -32 -13 -28 25 6 24 23 30 72 8 80 -7 3 -24 0 -37 -7z"/>
<path d="M1135 1037 c-23 -49 -34 -128 -17 -126 4 0 27 28 52 62 54 73 81 89
51 28 -21 -40 -28 -91 -13 -91 4 0 27 27 50 60 24 33 47 60 53 60 6 0 8 -6 5
-12 -25 -62 -29 -89 -14 -104 8 -8 22 -12 32 -8 14 6 15 8 2 18 -14 10 -12 19
9 71 30 72 30 75 6 75 -11 0 -40 -23 -65 -52 -50 -58 -56 -57 -26 1 18 36 18
40 3 45 -12 5 -32 -10 -70 -50 -58 -61 -66 -61 -28 1 29 47 31 61 9 69 -11 4
-22 -8 -39 -47z"/>
<path d="M1551 1051 c-11 -21 -25 -59 -32 -85 -16 -65 0 -78 35 -28 31 45 74
88 81 81 2 -3 -1 -22 -7 -42 -10 -32 -9 -40 4 -53 11 -12 21 -13 33 -7 15 9
15 11 2 16 -18 7 -12 39 17 95 20 39 20 42 -3 42 -11 0 -45 -26 -76 -57 l-57
-58 27 54 c25 51 27 81 6 81 -6 0 -19 -17 -30 -39z"/>
<path d="M1960 1075 c-8 -10 -11 -32 -8 -60 5 -41 4 -45 -23 -54 -36 -13 -58
-54 -39 -76 16 -20 33 -19 59 3 18 14 22 28 23 72 0 30 4 63 9 72 12 23 44 24
35 2 -3 -8 -2 -12 4 -9 15 9 12 31 -6 49 -19 20 -38 20 -54 1z m0 -134 c0 -16
-41 -61 -51 -56 -14 9 -11 23 11 45 21 21 40 26 40 11z"/>
<path d="M2589 1076 c-60 -30 -93 -142 -49 -166 26 -14 52 -6 76 22 18 20 17
20 -13 -1 -17 -13 -36 -20 -42 -17 -27 17 7 126 44 140 25 9 17 -25 -12 -57
-30 -32 -13 -28 25 6 24 23 30 72 8 80 -7 3 -24 0 -37 -7z"/>
<path d="M1441 1046 c-18 -21 -36 -115 -24 -127 7 -7 16 7 30 43 12 29 24 60
28 69 8 21 -19 33 -34 15z"/>
</g>
</svg>
