<?xml version="1.0" standalone="no"?>
<!DOCTYPE svg PUBLIC "-//W3C//DTD SVG 20010904//EN"
 "http://www.w3.org/TR/2001/REC-SVG-20010904/DTD/svg10.dtd">
<svg version="1.0" xmlns="http://www.w3.org/2000/svg"
 width="330.000000pt" height="330.000000pt" viewBox="0 0 330.000000 330.000000"
 preserveAspectRatio="xMidYMid meet">

<g transform="translate(0.000000,330.000000) scale(0.100000,-0.100000)"
fill="#000000" stroke="none">
<path d="M1415 2351 l-220 -128 -3 -265 -2 -266 230 -132 230 -132 230 132
230 132 -2 265 -3 266 -220 128 c-121 71 -227 128 -235 128 -8 0 -114 -58
-235 -128z m450 -28 l205 -118 0 -247 0 -246 -210 -122 -210 -121 -210 121
-210 122 0 246 1 247 202 117 c111 64 208 117 215 117 7 1 104 -52 217 -116z"/>
<path d="M1623 2135 c-3 -9 -19 -23 -35 -31 -42 -22 -58 -68 -58 -169 0 -69
-3 -85 -15 -85 -8 0 -15 -7 -15 -15 0 -11 13 -15 54 -15 48 0 55 -3 58 -21 4
-30 33 -47 56 -33 9 6 18 21 20 33 3 18 10 21 58 21 41 0 54 4 54 15 0 8 -7
15 -15 15 -12 0 -15 16 -15 86 0 99 -17 147 -60 169 -15 8 -30 21 -33 30 -4 8
-16 15 -27 15 -11 0 -23 -7 -27 -15z m76 -51 c35 -25 51 -75 51 -159 l0 -75
-101 0 -101 0 4 94 c3 76 8 99 23 117 37 40 86 49 124 23z m-31 -282 c2 -7 -6
-12 -17 -12 -21 0 -27 11 -14 24 9 9 26 2 31 -12z"/>
<path d="M2074 1176 c-3 -8 4 -32 15 -55 29 -56 28 -135 -2 -192 -27 -51 -67
-67 -67 -27 0 25 30 80 63 116 15 16 18 25 10 33 -18 18 -51 -11 -80 -69 -21
-43 -24 -59 -17 -80 10 -30 41 -39 73 -23 33 18 71 108 71 170 -1 84 -48 175
-66 127z"/>
<path d="M930 1145 c0 -18 -51 -175 -74 -227 -13 -30 -13 -39 -3 -50 18 -18
137 -12 137 7 0 22 -13 24 -59 14 -24 -5 -45 -8 -48 -6 -2 2 17 59 43 125 38
100 44 124 34 137 -16 19 -30 19 -30 0z"/>
<path d="M1586 1123 c-3 -4 -6 -20 -6 -36 0 -29 0 -30 20 -12 11 10 20 24 20
30 0 14 -25 27 -34 18z"/>
<path d="M1096 1039 c-83 -65 -72 -198 13 -154 37 19 59 49 67 93 6 29 2 38
-21 58 -16 13 -29 24 -30 24 -1 0 -14 -9 -29 -21z m58 -65 c-7 -37 -51 -94
-73 -94 -16 0 -13 56 4 90 18 35 56 63 68 51 5 -5 5 -26 1 -47z"/>
<path d="M1235 1007 c-23 -49 -34 -128 -17 -126 4 0 27 28 52 62 54 73 81 89
51 28 -22 -42 -28 -91 -11 -91 12 0 35 41 32 58 -2 7 6 29 18 49 17 29 18 38
8 44 -21 14 -24 12 -77 -48 -55 -62 -65 -61 -26 2 29 47 31 61 9 69 -11 4 -22
-8 -39 -47z"/>
<path d="M1641 1021 c-11 -21 -25 -59 -32 -85 -18 -74 0 -76 54 -6 45 58 77
79 62 43 -3 -10 -9 -30 -12 -44 -6 -31 18 -55 43 -41 14 8 14 10 1 15 -18 7
-12 39 17 95 20 40 20 42 -4 42 -12 0 -44 -25 -76 -57 l-56 -58 27 54 c25 51
27 81 6 81 -6 0 -19 -17 -30 -39z"/>
<path d="M1886 1039 c-35 -28 -56 -70 -56 -113 0 -59 54 -72 96 -24 18 20 17
20 -13 -1 -17 -13 -36 -20 -42 -17 -27 17 7 126 44 140 25 9 17 -25 -12 -57
-30 -32 -13 -28 25 6 26 24 30 72 6 81 -21 8 -18 9 -48 -15z"/>
<path d="M2226 1039 c-35 -28 -56 -70 -56 -113 0 -59 54 -72 96 -24 18 20 17
20 -13 -1 -17 -13 -36 -20 -42 -17 -27 17 7 126 44 140 25 9 17 -25 -12 -57
-30 -32 -13 -28 25 6 26 24 30 72 6 81 -21 8 -18 9 -48 -15z"/>
<path d="M2376 1032 c-7 -15 -21 -54 -30 -86 -14 -47 -15 -61 -5 -67 9 -5 17
3 25 27 6 19 17 41 24 49 6 8 9 18 6 23 -3 5 2 21 10 36 17 34 17 33 -1 40
-10 3 -20 -4 -29 -22z"/>
<path d="M2448 1032 c-7 -9 -20 -26 -28 -37 -14 -18 -13 -19 1 -7 14 10 18 10
23 -3 10 -26 24 -16 28 21 5 41 -4 51 -24 26z"/>
<path d="M1404 1008 c-17 -18 -34 -40 -40 -48 -5 -9 3 -2 18 15 14 16 29 27
32 25 3 -3 -3 -27 -12 -53 -15 -42 -15 -48 -1 -62 9 -9 23 -13 33 -9 14 6 15
8 2 18 -14 10 -12 19 9 71 14 33 25 63 25 68 0 19 -39 4 -66 -25z"/>
<path d="M1541 1016 c-18 -21 -36 -115 -24 -127 7 -7 16 5 28 38 10 26 22 52
26 57 5 6 9 15 9 22 0 18 -27 25 -39 10z"/>
</g>
</svg>
